<?xml version="1.0" encoding="UTF-8" standalone="no"?>
<!DOCTYPE svg PUBLIC "-//W3C//DTD SVG 1.1//EN" "http://www.w3.org/Graphics/SVG/1.1/DTD/svg11.dtd">
<svg width="100%" height="100%" viewBox="0 0 2048 2048" version="1.1" xmlns="http://www.w3.org/2000/svg" xmlns:xlink="http://www.w3.org/1999/xlink" xml:space="preserve" xmlns:serif="http://www.serif.com/" style="fill-rule:evenodd;clip-rule:evenodd;stroke-linejoin:round;stroke-miterlimit:2;">
    <g transform="matrix(0.997123,0,0,0.997123,3.80439,5.35959)">
        <circle cx="1023.14" cy="1021.58" r="1026.95"/>
    </g>
    <g transform="matrix(0.934096,0.537129,-0.457664,0.795901,1012.04,-146.403)">
        <path d="M299.306,1592.17L26.108,1668.67L141.298,1903.77L299.306,1592.17Z" style="fill:rgb(229,27,29);"/>
    </g>
    <g transform="matrix(0.934096,0.537129,-0.457664,0.795901,1012.04,-146.403)">
        <path d="M299.306,1592.17L943.638,1901.68L141.298,1903.77L299.306,1592.17Z" style="fill:rgb(159,23,19);"/>
    </g>
    <g transform="matrix(0.934096,0.537129,-0.457664,0.795901,1012.04,-146.403)">
        <path d="M299.306,1592.17L943.638,1901.68L790.318,1588.75L299.306,1592.17Z" style="fill:rgb(185,22,23);"/>
    </g>
    <g transform="matrix(0.858586,0,0,0.858586,143.949,131.071)">
        <path d="M1560,1340L1900,1530L1024,2030L1024,1644L1560,1340Z" style="fill:rgb(130,16,19);"/>
    </g>
    <g transform="matrix(0.858586,0,0,0.858586,143.949,131.071)">
        <path d="M1560,1340L1900,1530L1900,1200L1560,1000L1560,1340Z" style="fill:rgb(205,37,40);"/>
    </g>
    <g transform="matrix(0.858586,0,0,0.858586,143.949,131.071)">
        <path d="M1560,1340L1030,800L1560,1000L1560,1340Z" style="fill:rgb(201,33,33);"/>
    </g>
    <g transform="matrix(-0.934096,-0.537129,0.457664,-0.795901,1035.96,2194.4)">
        <path d="M299.306,1592.17L26.108,1668.67L141.298,1903.77L299.306,1592.17Z" style="fill:rgb(207,54,55);"/>
    </g>
    <g transform="matrix(-0.934096,-0.537129,0.457664,-0.795901,1035.96,2194.4)">
        <path d="M299.306,1592.17L943.638,1901.68L141.298,1903.77L299.306,1592.17Z" style="fill:rgb(214,28,29);"/>
    </g>
    <g transform="matrix(-0.934096,-0.537129,0.457664,-0.795901,1035.96,2194.4)">
        <path d="M299.306,1592.17L943.638,1901.68L790.318,1588.75L299.306,1592.17Z" style="fill:rgb(128,23,26);"/>
    </g>
    <g transform="matrix(-0.858586,-1.05146e-16,1.05146e-16,-0.858586,1904.05,1916.93)">
        <path d="M1560,1340L1900,1530L1024,2030L1024,1644L1560,1340Z" style="fill:rgb(158,26,28);"/>
    </g>
    <g transform="matrix(-0.858586,-1.05146e-16,1.05146e-16,-0.858586,1904.05,1916.93)">
        <path d="M1560,1340L1900,1530L1900,1200L1560,1000L1560,1340Z" style="fill:rgb(114,15,17);"/>
    </g>
    <g transform="matrix(-0.858586,-1.05146e-16,1.05146e-16,-0.858586,1904.05,1916.93)">
        <path d="M1560,1340L1030,800L1560,1000L1560,1340Z" style="fill:rgb(84,12,13);"/>
    </g>
</svg>
